<svg width="960" height="540" viewBox="0 0 960 540" xmlns="http://www.w3.org/2000/svg">
  <defs>
    <linearGradient id="g" x1="0" y1="0" x2="1" y2="1">
      <stop stop-color="#1E3A8A" offset="0"/>
      <stop stop-color="#2563EB" offset="1"/>
    </linearGradient>
    <filter id="soft" x="-20%" y="-20%" width="140%" height="140%">
      <feGaussianBlur in="SourceGraphic" stdDeviation="18" />
    </filter>
  </defs>
  <rect width="960" height="540" fill="#F6F9FF"/>
  <circle cx="160" cy="120" r="90" fill="url(#g)" opacity="0.18" filter="url(#soft)"/>
  <circle cx="830" cy="420" r="110" fill="url(#g)" opacity="0.16" filter="url(#soft)"/>
  <g transform="translate(180,110)">
    <rect x="0" y="0" rx="18" width="600" height="320" fill="white" stroke="#E5E7EB"/>
    <rect x="28" y="30" rx="8" width="260" height="18" fill="#E5ECFF"/>
    <rect x="28" y="60" rx="8" width="540" height="14" fill="#EEF2FF"/>
    <rect x="28" y="82" rx="8" width="500" height="14" fill="#EEF2FF"/>
    <rect x="28" y="130" rx="10" width="260" height="42" fill="#1E3A8A"/>
    <rect x="304" y="130" rx="10" width="260" height="42" fill="#2563EB" opacity="0.9"/>
    <rect x="28" y="190" rx="8" width="340" height="14" fill="#EEF2FF"/>
    <rect x="28" y="212" rx="8" width="300" height="14" fill="#EEF2FF"/>
    <rect x="28" y="234" rx="8" width="280" height="14" fill="#EEF2FF"/>
    <rect x="28" y="270" rx="10" width="180" height="36" fill="url(#g)"/>
  </g>
  <g transform="translate(650,160)">
    <circle cx="0" cy="0" r="60" fill="url(#g)"/>
    <rect x="-22" y="-8" width="44" height="16" rx="8" fill="white"/>
    <rect x="-30" y="20" width="60" height="10" rx="5" fill="white" opacity="0.7"/>
  </g>
</svg>
